<mxfile host="app.diagrams.net" agent="Mozilla/5.0 (Macintosh; Intel Mac OS X 10_15_7) AppleWebKit/537.36 (KHTML, like Gecko) Chrome/134.0.0.0 Safari/537.36" version="26.2.8">
  <diagram name="Page-1" id="zFSA-vM6v2yHP-NJ1RIl">
    <mxGraphModel dx="1188" dy="794" grid="1" gridSize="10" guides="1" tooltips="1" connect="1" arrows="1" fold="1" page="1" pageScale="1" pageWidth="850" pageHeight="1100" math="0" shadow="0">
      <root>
        <mxCell id="0" />
        <mxCell id="1" parent="0" />
        <mxCell id="lg_RptiD22irAkathYto-9" style="edgeStyle=orthogonalEdgeStyle;rounded=0;orthogonalLoop=1;jettySize=auto;html=1;entryX=0;entryY=0.5;entryDx=0;entryDy=0;" parent="1" source="cm0QUA97sO_7CGqtcgEQ-1" target="cm0QUA97sO_7CGqtcgEQ-5" edge="1">
          <mxGeometry relative="1" as="geometry" />
        </mxCell>
        <mxCell id="cm0QUA97sO_7CGqtcgEQ-1" value="User" style="rounded=1;whiteSpace=wrap;html=1;" parent="1" vertex="1">
          <mxGeometry x="150" y="200" width="120" height="60" as="geometry" />
        </mxCell>
        <mxCell id="lg_RptiD22irAkathYto-12" style="edgeStyle=orthogonalEdgeStyle;rounded=0;orthogonalLoop=1;jettySize=auto;html=1;entryX=0;entryY=0.375;entryDx=0;entryDy=0;entryPerimeter=0;" parent="1" source="cm0QUA97sO_7CGqtcgEQ-5" target="lg_RptiD22irAkathYto-2" edge="1">
          <mxGeometry relative="1" as="geometry">
            <mxPoint x="500" y="240" as="targetPoint" />
            <Array as="points">
              <mxPoint x="460" y="220" />
              <mxPoint x="460" y="220" />
            </Array>
          </mxGeometry>
        </mxCell>
        <mxCell id="cm0QUA97sO_7CGqtcgEQ-5" value="Logical Gate" style="ellipse;whiteSpace=wrap;html=1;aspect=fixed;" parent="1" vertex="1">
          <mxGeometry x="350" y="190" width="80" height="80" as="geometry" />
        </mxCell>
        <mxCell id="cm0QUA97sO_7CGqtcgEQ-7" value="Open App" style="text;html=1;align=center;verticalAlign=middle;whiteSpace=wrap;rounded=0;" parent="1" vertex="1">
          <mxGeometry x="280" y="200" width="60" height="30" as="geometry" />
        </mxCell>
        <mxCell id="cm0QUA97sO_7CGqtcgEQ-10" value="DFD Level 0" style="text;html=1;align=center;verticalAlign=middle;whiteSpace=wrap;rounded=0;" parent="1" vertex="1">
          <mxGeometry x="80" y="90" width="60" height="30" as="geometry" />
        </mxCell>
        <mxCell id="cm0QUA97sO_7CGqtcgEQ-11" value="DFD Level 1" style="text;html=1;align=center;verticalAlign=middle;whiteSpace=wrap;rounded=0;" parent="1" vertex="1">
          <mxGeometry x="110" y="400" width="60" height="30" as="geometry" />
        </mxCell>
        <mxCell id="cm0QUA97sO_7CGqtcgEQ-23" style="edgeStyle=orthogonalEdgeStyle;rounded=0;orthogonalLoop=1;jettySize=auto;html=1;" parent="1" source="cm0QUA97sO_7CGqtcgEQ-12" edge="1">
          <mxGeometry relative="1" as="geometry">
            <mxPoint x="300" y="570" as="targetPoint" />
          </mxGeometry>
        </mxCell>
        <mxCell id="cm0QUA97sO_7CGqtcgEQ-32" value="Play Game" style="edgeLabel;html=1;align=center;verticalAlign=middle;resizable=0;points=[];" parent="cm0QUA97sO_7CGqtcgEQ-23" connectable="0" vertex="1">
          <mxGeometry x="-0.1773" y="-1" relative="1" as="geometry">
            <mxPoint as="offset" />
          </mxGeometry>
        </mxCell>
        <mxCell id="cm0QUA97sO_7CGqtcgEQ-12" value="User" style="rounded=1;whiteSpace=wrap;html=1;" parent="1" vertex="1">
          <mxGeometry x="80" y="539" width="120" height="60" as="geometry" />
        </mxCell>
        <mxCell id="4ra3rBG6zGIScaALu05h-17" style="edgeStyle=orthogonalEdgeStyle;rounded=0;orthogonalLoop=1;jettySize=auto;html=1;" edge="1" parent="1" source="cm0QUA97sO_7CGqtcgEQ-13" target="4ra3rBG6zGIScaALu05h-16">
          <mxGeometry relative="1" as="geometry">
            <Array as="points">
              <mxPoint x="260" y="740" />
              <mxPoint x="260" y="740" />
            </Array>
          </mxGeometry>
        </mxCell>
        <mxCell id="4ra3rBG6zGIScaALu05h-20" value="Load" style="edgeLabel;html=1;align=center;verticalAlign=middle;resizable=0;points=[];" vertex="1" connectable="0" parent="4ra3rBG6zGIScaALu05h-17">
          <mxGeometry x="-0.009" relative="1" as="geometry">
            <mxPoint as="offset" />
          </mxGeometry>
        </mxCell>
        <mxCell id="4ra3rBG6zGIScaALu05h-21" style="edgeStyle=orthogonalEdgeStyle;rounded=0;orthogonalLoop=1;jettySize=auto;html=1;" edge="1" parent="1" source="cm0QUA97sO_7CGqtcgEQ-13">
          <mxGeometry relative="1" as="geometry">
            <mxPoint x="360" y="590" as="targetPoint" />
            <Array as="points">
              <mxPoint x="360" y="641" />
              <mxPoint x="361" y="641" />
            </Array>
          </mxGeometry>
        </mxCell>
        <mxCell id="4ra3rBG6zGIScaALu05h-22" value="Save" style="edgeLabel;html=1;align=center;verticalAlign=middle;resizable=0;points=[];" vertex="1" connectable="0" parent="4ra3rBG6zGIScaALu05h-21">
          <mxGeometry x="-0.0155" y="-1" relative="1" as="geometry">
            <mxPoint as="offset" />
          </mxGeometry>
        </mxCell>
        <mxCell id="cm0QUA97sO_7CGqtcgEQ-13" value="Enemy Script" style="ellipse;whiteSpace=wrap;html=1;aspect=fixed;" parent="1" vertex="1">
          <mxGeometry x="300" y="690" width="80" height="80" as="geometry" />
        </mxCell>
        <mxCell id="cm0QUA97sO_7CGqtcgEQ-27" style="edgeStyle=orthogonalEdgeStyle;rounded=0;orthogonalLoop=1;jettySize=auto;html=1;entryX=0.5;entryY=0;entryDx=0;entryDy=0;" parent="1" source="cm0QUA97sO_7CGqtcgEQ-16" edge="1">
          <mxGeometry relative="1" as="geometry">
            <mxPoint x="600" y="660" as="targetPoint" />
          </mxGeometry>
        </mxCell>
        <mxCell id="4ra3rBG6zGIScaALu05h-9" value="Output" style="edgeLabel;html=1;align=center;verticalAlign=middle;resizable=0;points=[];" vertex="1" connectable="0" parent="cm0QUA97sO_7CGqtcgEQ-27">
          <mxGeometry x="-0.3399" y="2" relative="1" as="geometry">
            <mxPoint as="offset" />
          </mxGeometry>
        </mxCell>
        <mxCell id="4ra3rBG6zGIScaALu05h-24" style="edgeStyle=orthogonalEdgeStyle;rounded=0;orthogonalLoop=1;jettySize=auto;html=1;" edge="1" parent="1" source="cm0QUA97sO_7CGqtcgEQ-16">
          <mxGeometry relative="1" as="geometry">
            <mxPoint x="380" y="550" as="targetPoint" />
            <Array as="points">
              <mxPoint x="430" y="550" />
              <mxPoint x="430" y="550" />
            </Array>
          </mxGeometry>
        </mxCell>
        <mxCell id="4ra3rBG6zGIScaALu05h-25" value="Save" style="edgeLabel;html=1;align=center;verticalAlign=middle;resizable=0;points=[];" vertex="1" connectable="0" parent="4ra3rBG6zGIScaALu05h-24">
          <mxGeometry x="0.0801" relative="1" as="geometry">
            <mxPoint x="5" as="offset" />
          </mxGeometry>
        </mxCell>
        <mxCell id="cm0QUA97sO_7CGqtcgEQ-16" value="Button Script" style="ellipse;whiteSpace=wrap;html=1;aspect=fixed;" parent="1" vertex="1">
          <mxGeometry x="560" y="529" width="80" height="80" as="geometry" />
        </mxCell>
        <mxCell id="cm0QUA97sO_7CGqtcgEQ-33" style="edgeStyle=orthogonalEdgeStyle;rounded=0;orthogonalLoop=1;jettySize=auto;html=1;" parent="1" source="cm0QUA97sO_7CGqtcgEQ-17" edge="1">
          <mxGeometry relative="1" as="geometry">
            <mxPoint x="300" y="550" as="targetPoint" />
          </mxGeometry>
        </mxCell>
        <mxCell id="cm0QUA97sO_7CGqtcgEQ-35" value="Save" style="edgeLabel;html=1;align=center;verticalAlign=middle;resizable=0;points=[];" parent="cm0QUA97sO_7CGqtcgEQ-33" connectable="0" vertex="1">
          <mxGeometry x="-0.4887" relative="1" as="geometry">
            <mxPoint as="offset" />
          </mxGeometry>
        </mxCell>
        <mxCell id="4ra3rBG6zGIScaALu05h-11" style="edgeStyle=orthogonalEdgeStyle;rounded=0;orthogonalLoop=1;jettySize=auto;html=1;entryX=0;entryY=0.75;entryDx=0;entryDy=0;" edge="1" parent="1" source="cm0QUA97sO_7CGqtcgEQ-17" target="4ra3rBG6zGIScaALu05h-10">
          <mxGeometry relative="1" as="geometry">
            <Array as="points">
              <mxPoint x="490" y="465" />
              <mxPoint x="490" y="465" />
            </Array>
          </mxGeometry>
        </mxCell>
        <mxCell id="4ra3rBG6zGIScaALu05h-23" value="Load" style="edgeLabel;html=1;align=center;verticalAlign=middle;resizable=0;points=[];" vertex="1" connectable="0" parent="4ra3rBG6zGIScaALu05h-11">
          <mxGeometry x="-0.0971" y="-1" relative="1" as="geometry">
            <mxPoint as="offset" />
          </mxGeometry>
        </mxCell>
        <mxCell id="cm0QUA97sO_7CGqtcgEQ-17" value="Character Script" style="ellipse;whiteSpace=wrap;html=1;aspect=fixed;" parent="1" vertex="1">
          <mxGeometry x="400" y="410" width="80" height="80" as="geometry" />
        </mxCell>
        <mxCell id="cm0QUA97sO_7CGqtcgEQ-19" value="" style="endArrow=none;html=1;rounded=0;" parent="1" edge="1">
          <mxGeometry width="50" height="50" relative="1" as="geometry">
            <mxPoint x="300" y="589" as="sourcePoint" />
            <mxPoint x="380" y="589" as="targetPoint" />
          </mxGeometry>
        </mxCell>
        <mxCell id="cm0QUA97sO_7CGqtcgEQ-20" value="" style="endArrow=none;html=1;rounded=0;" parent="1" edge="1">
          <mxGeometry width="50" height="50" relative="1" as="geometry">
            <mxPoint x="300" y="549" as="sourcePoint" />
            <mxPoint x="380" y="549" as="targetPoint" />
          </mxGeometry>
        </mxCell>
        <mxCell id="cm0QUA97sO_7CGqtcgEQ-24" style="edgeStyle=orthogonalEdgeStyle;rounded=0;orthogonalLoop=1;jettySize=auto;html=1;entryX=0;entryY=1;entryDx=0;entryDy=0;" parent="1" target="cm0QUA97sO_7CGqtcgEQ-17" edge="1">
          <mxGeometry relative="1" as="geometry">
            <mxPoint x="370" y="550" as="sourcePoint" />
            <Array as="points">
              <mxPoint x="370" y="478" />
            </Array>
          </mxGeometry>
        </mxCell>
        <mxCell id="cm0QUA97sO_7CGqtcgEQ-31" value="Load" style="edgeLabel;html=1;align=center;verticalAlign=middle;resizable=0;points=[];" parent="cm0QUA97sO_7CGqtcgEQ-24" connectable="0" vertex="1">
          <mxGeometry x="-0.2417" y="-1" relative="1" as="geometry">
            <mxPoint as="offset" />
          </mxGeometry>
        </mxCell>
        <mxCell id="cm0QUA97sO_7CGqtcgEQ-25" style="edgeStyle=orthogonalEdgeStyle;rounded=0;orthogonalLoop=1;jettySize=auto;html=1;entryX=0;entryY=0.638;entryDx=0;entryDy=0;entryPerimeter=0;" parent="1" target="cm0QUA97sO_7CGqtcgEQ-16" edge="1">
          <mxGeometry relative="1" as="geometry">
            <mxPoint x="384" y="580" as="sourcePoint" />
            <mxPoint x="540" y="580" as="targetPoint" />
            <Array as="points">
              <mxPoint x="384" y="579" />
              <mxPoint x="384" y="580" />
            </Array>
          </mxGeometry>
        </mxCell>
        <mxCell id="cm0QUA97sO_7CGqtcgEQ-30" value="Load" style="edgeLabel;html=1;align=center;verticalAlign=middle;resizable=0;points=[];" parent="cm0QUA97sO_7CGqtcgEQ-25" connectable="0" vertex="1">
          <mxGeometry x="-0.2421" relative="1" as="geometry">
            <mxPoint x="21" y="-1" as="offset" />
          </mxGeometry>
        </mxCell>
        <mxCell id="cm0QUA97sO_7CGqtcgEQ-26" style="edgeStyle=orthogonalEdgeStyle;rounded=0;orthogonalLoop=1;jettySize=auto;html=1;" parent="1" target="cm0QUA97sO_7CGqtcgEQ-13" edge="1">
          <mxGeometry relative="1" as="geometry">
            <mxPoint x="320" y="590" as="sourcePoint" />
            <Array as="points">
              <mxPoint x="320" y="590" />
            </Array>
          </mxGeometry>
        </mxCell>
        <mxCell id="cm0QUA97sO_7CGqtcgEQ-29" value="Load" style="edgeLabel;html=1;align=center;verticalAlign=middle;resizable=0;points=[];" parent="cm0QUA97sO_7CGqtcgEQ-26" connectable="0" vertex="1">
          <mxGeometry x="-0.027" relative="1" as="geometry">
            <mxPoint as="offset" />
          </mxGeometry>
        </mxCell>
        <mxCell id="cm0QUA97sO_7CGqtcgEQ-21" value="JSON File" style="text;html=1;align=center;verticalAlign=middle;whiteSpace=wrap;rounded=0;" parent="1" vertex="1">
          <mxGeometry x="310" y="559" width="60" height="20" as="geometry" />
        </mxCell>
        <mxCell id="lg_RptiD22irAkathYto-15" style="edgeStyle=orthogonalEdgeStyle;rounded=0;orthogonalLoop=1;jettySize=auto;html=1;entryX=0;entryY=0.5;entryDx=0;entryDy=0;" parent="1" source="xA9a0mGivStNZ6-JXwGN-1" target="xA9a0mGivStNZ6-JXwGN-4" edge="1">
          <mxGeometry relative="1" as="geometry" />
        </mxCell>
        <mxCell id="lg_RptiD22irAkathYto-16" value="Start app" style="edgeLabel;html=1;align=center;verticalAlign=middle;resizable=0;points=[];" parent="lg_RptiD22irAkathYto-15" vertex="1" connectable="0">
          <mxGeometry x="0.4" y="-1" relative="1" as="geometry">
            <mxPoint x="-26" y="-1" as="offset" />
          </mxGeometry>
        </mxCell>
        <mxCell id="xA9a0mGivStNZ6-JXwGN-1" value="User" style="rounded=1;whiteSpace=wrap;html=1;" parent="1" vertex="1">
          <mxGeometry y="1320" width="120" height="60" as="geometry" />
        </mxCell>
        <mxCell id="xA9a0mGivStNZ6-JXwGN-2" value="DFD Level 2" style="text;html=1;align=center;verticalAlign=middle;whiteSpace=wrap;rounded=0;" parent="1" vertex="1">
          <mxGeometry x="110" y="950" width="60" height="30" as="geometry" />
        </mxCell>
        <mxCell id="lg_RptiD22irAkathYto-27" style="edgeStyle=orthogonalEdgeStyle;rounded=0;orthogonalLoop=1;jettySize=auto;html=1;exitX=0;exitY=1;exitDx=0;exitDy=0;entryX=0;entryY=0;entryDx=0;entryDy=0;" parent="1" source="xA9a0mGivStNZ6-JXwGN-3" target="xA9a0mGivStNZ6-JXwGN-21" edge="1">
          <mxGeometry relative="1" as="geometry" />
        </mxCell>
        <mxCell id="lg_RptiD22irAkathYto-33" value="Save Data" style="edgeLabel;html=1;align=center;verticalAlign=middle;resizable=0;points=[];" parent="lg_RptiD22irAkathYto-27" vertex="1" connectable="0">
          <mxGeometry x="-0.1498" y="1" relative="1" as="geometry">
            <mxPoint as="offset" />
          </mxGeometry>
        </mxCell>
        <mxCell id="lg_RptiD22irAkathYto-36" style="edgeStyle=orthogonalEdgeStyle;rounded=0;orthogonalLoop=1;jettySize=auto;html=1;exitX=1;exitY=0;exitDx=0;exitDy=0;entryX=1;entryY=1;entryDx=0;entryDy=0;" parent="1" source="xA9a0mGivStNZ6-JXwGN-3" target="xA9a0mGivStNZ6-JXwGN-16" edge="1">
          <mxGeometry relative="1" as="geometry">
            <Array as="points">
              <mxPoint x="438" y="1228" />
            </Array>
          </mxGeometry>
        </mxCell>
        <mxCell id="lg_RptiD22irAkathYto-83" value="Load" style="edgeLabel;html=1;align=center;verticalAlign=middle;resizable=0;points=[];" parent="lg_RptiD22irAkathYto-36" vertex="1" connectable="0">
          <mxGeometry x="-0.0321" y="-2" relative="1" as="geometry">
            <mxPoint as="offset" />
          </mxGeometry>
        </mxCell>
        <mxCell id="lg_RptiD22irAkathYto-38" style="edgeStyle=orthogonalEdgeStyle;rounded=0;orthogonalLoop=1;jettySize=auto;html=1;" parent="1" source="xA9a0mGivStNZ6-JXwGN-3" target="xA9a0mGivStNZ6-JXwGN-20" edge="1">
          <mxGeometry relative="1" as="geometry">
            <Array as="points">
              <mxPoint x="550" y="1370" />
              <mxPoint x="550" y="1430" />
            </Array>
          </mxGeometry>
        </mxCell>
        <mxCell id="lg_RptiD22irAkathYto-70" value="Load" style="edgeLabel;html=1;align=center;verticalAlign=middle;resizable=0;points=[];" parent="lg_RptiD22irAkathYto-38" vertex="1" connectable="0">
          <mxGeometry x="0.0164" y="1" relative="1" as="geometry">
            <mxPoint as="offset" />
          </mxGeometry>
        </mxCell>
        <mxCell id="lg_RptiD22irAkathYto-41" style="edgeStyle=orthogonalEdgeStyle;rounded=0;orthogonalLoop=1;jettySize=auto;html=1;exitX=0.95;exitY=0.269;exitDx=0;exitDy=0;entryX=0;entryY=0.5;entryDx=0;entryDy=0;exitPerimeter=0;" parent="1" source="xA9a0mGivStNZ6-JXwGN-3" target="xA9a0mGivStNZ6-JXwGN-26" edge="1">
          <mxGeometry relative="1" as="geometry" />
        </mxCell>
        <mxCell id="lg_RptiD22irAkathYto-71" value="Load" style="edgeLabel;html=1;align=center;verticalAlign=middle;resizable=0;points=[];" parent="lg_RptiD22irAkathYto-41" vertex="1" connectable="0">
          <mxGeometry x="0.0428" y="-1" relative="1" as="geometry">
            <mxPoint as="offset" />
          </mxGeometry>
        </mxCell>
        <mxCell id="xA9a0mGivStNZ6-JXwGN-3" value="Data Persistence Manager" style="ellipse;whiteSpace=wrap;html=1;aspect=fixed;" parent="1" vertex="1">
          <mxGeometry x="370" y="1310" width="80" height="80" as="geometry" />
        </mxCell>
        <mxCell id="lg_RptiD22irAkathYto-18" style="edgeStyle=orthogonalEdgeStyle;rounded=0;orthogonalLoop=1;jettySize=auto;html=1;entryX=0;entryY=0.5;entryDx=0;entryDy=0;" parent="1" source="xA9a0mGivStNZ6-JXwGN-4" target="xA9a0mGivStNZ6-JXwGN-3" edge="1">
          <mxGeometry relative="1" as="geometry" />
        </mxCell>
        <mxCell id="lg_RptiD22irAkathYto-19" value="Play Game" style="edgeLabel;html=1;align=center;verticalAlign=middle;resizable=0;points=[];" parent="lg_RptiD22irAkathYto-18" vertex="1" connectable="0">
          <mxGeometry x="-0.3846" y="-1" relative="1" as="geometry">
            <mxPoint x="10" y="-1" as="offset" />
          </mxGeometry>
        </mxCell>
        <mxCell id="xA9a0mGivStNZ6-JXwGN-4" value="MainMenu" style="ellipse;whiteSpace=wrap;html=1;aspect=fixed;" parent="1" vertex="1">
          <mxGeometry x="200" y="1310" width="80" height="80" as="geometry" />
        </mxCell>
        <mxCell id="xA9a0mGivStNZ6-JXwGN-8" value="" style="endArrow=none;html=1;rounded=0;" parent="1" edge="1">
          <mxGeometry width="50" height="50" relative="1" as="geometry">
            <mxPoint x="370" y="1609" as="sourcePoint" />
            <mxPoint x="450" y="1609" as="targetPoint" />
          </mxGeometry>
        </mxCell>
        <mxCell id="xA9a0mGivStNZ6-JXwGN-9" value="" style="endArrow=none;html=1;rounded=0;" parent="1" edge="1">
          <mxGeometry width="50" height="50" relative="1" as="geometry">
            <mxPoint x="370" y="1569" as="sourcePoint" />
            <mxPoint x="450" y="1569" as="targetPoint" />
          </mxGeometry>
        </mxCell>
        <mxCell id="lg_RptiD22irAkathYto-30" style="edgeStyle=orthogonalEdgeStyle;rounded=0;orthogonalLoop=1;jettySize=auto;html=1;entryX=1;entryY=1;entryDx=0;entryDy=0;" parent="1" target="xA9a0mGivStNZ6-JXwGN-21" edge="1">
          <mxGeometry relative="1" as="geometry">
            <mxPoint x="438" y="1570" as="sourcePoint" />
            <Array as="points">
              <mxPoint x="438" y="1570" />
              <mxPoint x="438" y="1570" />
            </Array>
          </mxGeometry>
        </mxCell>
        <mxCell id="lg_RptiD22irAkathYto-34" value="Load" style="edgeLabel;html=1;align=center;verticalAlign=middle;resizable=0;points=[];" parent="lg_RptiD22irAkathYto-30" vertex="1" connectable="0">
          <mxGeometry x="0.0856" relative="1" as="geometry">
            <mxPoint y="-1" as="offset" />
          </mxGeometry>
        </mxCell>
        <mxCell id="xA9a0mGivStNZ6-JXwGN-10" value="JSON File" style="text;html=1;align=center;verticalAlign=middle;whiteSpace=wrap;rounded=0;" parent="1" vertex="1">
          <mxGeometry x="380" y="1579" width="60" height="20" as="geometry" />
        </mxCell>
        <mxCell id="lg_RptiD22irAkathYto-58" style="edgeStyle=orthogonalEdgeStyle;rounded=0;orthogonalLoop=1;jettySize=auto;html=1;exitX=0;exitY=0;exitDx=0;exitDy=0;entryX=0;entryY=1;entryDx=0;entryDy=0;" parent="1" target="lg_RptiD22irAkathYto-55" edge="1">
          <mxGeometry relative="1" as="geometry">
            <Array as="points">
              <mxPoint x="622" y="1578" />
            </Array>
            <mxPoint x="621.7157287525379" y="1651.7157287525379" as="sourcePoint" />
          </mxGeometry>
        </mxCell>
        <mxCell id="lg_RptiD22irAkathYto-67" value="Save" style="edgeLabel;html=1;align=center;verticalAlign=middle;resizable=0;points=[];" parent="lg_RptiD22irAkathYto-58" vertex="1" connectable="0">
          <mxGeometry x="-0.2204" y="-1" relative="1" as="geometry">
            <mxPoint as="offset" />
          </mxGeometry>
        </mxCell>
        <mxCell id="lg_RptiD22irAkathYto-22" style="edgeStyle=orthogonalEdgeStyle;rounded=0;orthogonalLoop=1;jettySize=auto;html=1;" parent="1" source="xA9a0mGivStNZ6-JXwGN-16" target="xA9a0mGivStNZ6-JXwGN-3" edge="1">
          <mxGeometry relative="1" as="geometry">
            <Array as="points">
              <mxPoint x="380" y="1300" />
              <mxPoint x="380" y="1300" />
            </Array>
          </mxGeometry>
        </mxCell>
        <mxCell id="lg_RptiD22irAkathYto-82" value="Save" style="edgeLabel;html=1;align=center;verticalAlign=middle;resizable=0;points=[];" parent="lg_RptiD22irAkathYto-22" vertex="1" connectable="0">
          <mxGeometry x="-0.0103" relative="1" as="geometry">
            <mxPoint as="offset" />
          </mxGeometry>
        </mxCell>
        <mxCell id="lg_RptiD22irAkathYto-23" style="edgeStyle=orthogonalEdgeStyle;rounded=0;orthogonalLoop=1;jettySize=auto;html=1;entryX=1;entryY=1;entryDx=0;entryDy=0;exitX=1;exitY=0;exitDx=0;exitDy=0;" parent="1" source="xA9a0mGivStNZ6-JXwGN-16" edge="1">
          <mxGeometry relative="1" as="geometry">
            <Array as="points" />
            <mxPoint x="438.28427124746213" y="1088.2842712474621" as="targetPoint" />
          </mxGeometry>
        </mxCell>
        <mxCell id="lg_RptiD22irAkathYto-86" value="Load" style="edgeLabel;html=1;align=center;verticalAlign=middle;resizable=0;points=[];" parent="lg_RptiD22irAkathYto-23" vertex="1" connectable="0">
          <mxGeometry x="0.0599" y="-3" relative="1" as="geometry">
            <mxPoint as="offset" />
          </mxGeometry>
        </mxCell>
        <mxCell id="lg_RptiD22irAkathYto-24" style="edgeStyle=orthogonalEdgeStyle;rounded=0;orthogonalLoop=1;jettySize=auto;html=1;entryX=0.75;entryY=1;entryDx=0;entryDy=0;" parent="1" source="xA9a0mGivStNZ6-JXwGN-16" target="4ra3rBG6zGIScaALu05h-1" edge="1">
          <mxGeometry relative="1" as="geometry">
            <mxPoint x="280" y="1170" as="targetPoint" />
          </mxGeometry>
        </mxCell>
        <mxCell id="lg_RptiD22irAkathYto-80" value="Load" style="edgeLabel;html=1;align=center;verticalAlign=middle;resizable=0;points=[];" parent="lg_RptiD22irAkathYto-24" vertex="1" connectable="0">
          <mxGeometry x="-0.3833" y="-1" relative="1" as="geometry">
            <mxPoint as="offset" />
          </mxGeometry>
        </mxCell>
        <mxCell id="lg_RptiD22irAkathYto-25" style="edgeStyle=orthogonalEdgeStyle;rounded=0;orthogonalLoop=1;jettySize=auto;html=1;exitX=1;exitY=0.5;exitDx=0;exitDy=0;entryX=0.25;entryY=1;entryDx=0;entryDy=0;" parent="1" source="xA9a0mGivStNZ6-JXwGN-16" target="4ra3rBG6zGIScaALu05h-3" edge="1">
          <mxGeometry relative="1" as="geometry">
            <mxPoint x="530" y="1170" as="targetPoint" />
          </mxGeometry>
        </mxCell>
        <mxCell id="lg_RptiD22irAkathYto-79" value="Load" style="edgeLabel;html=1;align=center;verticalAlign=middle;resizable=0;points=[];" parent="lg_RptiD22irAkathYto-25" vertex="1" connectable="0">
          <mxGeometry x="-0.3636" y="1" relative="1" as="geometry">
            <mxPoint y="1" as="offset" />
          </mxGeometry>
        </mxCell>
        <mxCell id="xA9a0mGivStNZ6-JXwGN-16" value="Player Script" style="ellipse;whiteSpace=wrap;html=1;aspect=fixed;" parent="1" vertex="1">
          <mxGeometry x="370" y="1160" width="80" height="80" as="geometry" />
        </mxCell>
        <mxCell id="lg_RptiD22irAkathYto-50" style="edgeStyle=orthogonalEdgeStyle;rounded=0;orthogonalLoop=1;jettySize=auto;html=1;entryX=0.9;entryY=0.925;entryDx=0;entryDy=0;entryPerimeter=0;" parent="1" source="xA9a0mGivStNZ6-JXwGN-17" target="4ra3rBG6zGIScaALu05h-33" edge="1">
          <mxGeometry relative="1" as="geometry">
            <mxPoint x="668.2842712474621" y="1048.2842712474621" as="targetPoint" />
            <Array as="points">
              <mxPoint x="668" y="1090" />
              <mxPoint x="668" y="1090" />
            </Array>
          </mxGeometry>
        </mxCell>
        <mxCell id="4ra3rBG6zGIScaALu05h-31" value="Load" style="edgeLabel;html=1;align=center;verticalAlign=middle;resizable=0;points=[];" vertex="1" connectable="0" parent="lg_RptiD22irAkathYto-50">
          <mxGeometry x="0.1592" relative="1" as="geometry">
            <mxPoint x="2" y="3" as="offset" />
          </mxGeometry>
        </mxCell>
        <mxCell id="lg_RptiD22irAkathYto-53" style="edgeStyle=orthogonalEdgeStyle;rounded=0;orthogonalLoop=1;jettySize=auto;html=1;exitX=0;exitY=1;exitDx=0;exitDy=0;entryX=0;entryY=0;entryDx=0;entryDy=0;" parent="1" source="xA9a0mGivStNZ6-JXwGN-17" target="xA9a0mGivStNZ6-JXwGN-26" edge="1">
          <mxGeometry relative="1" as="geometry" />
        </mxCell>
        <mxCell id="lg_RptiD22irAkathYto-74" value="Save" style="edgeLabel;html=1;align=center;verticalAlign=middle;resizable=0;points=[];" parent="lg_RptiD22irAkathYto-53" vertex="1" connectable="0">
          <mxGeometry x="-0.0599" y="-3" relative="1" as="geometry">
            <mxPoint as="offset" />
          </mxGeometry>
        </mxCell>
        <mxCell id="xA9a0mGivStNZ6-JXwGN-17" value="Enemy Script" style="ellipse;whiteSpace=wrap;html=1;aspect=fixed;" parent="1" vertex="1">
          <mxGeometry x="650" y="1110" width="80" height="80" as="geometry" />
        </mxCell>
        <mxCell id="lg_RptiD22irAkathYto-51" style="edgeStyle=orthogonalEdgeStyle;rounded=0;orthogonalLoop=1;jettySize=auto;html=1;entryX=0;entryY=0;entryDx=0;entryDy=0;exitX=0.25;exitY=1;exitDx=0;exitDy=0;" parent="1" source="4ra3rBG6zGIScaALu05h-33" target="xA9a0mGivStNZ6-JXwGN-17" edge="1">
          <mxGeometry relative="1" as="geometry">
            <Array as="points">
              <mxPoint x="590" y="1070" />
              <mxPoint x="640" y="1070" />
              <mxPoint x="640" y="1122" />
            </Array>
            <mxPoint x="640" y="1060" as="sourcePoint" />
          </mxGeometry>
        </mxCell>
        <mxCell id="lg_RptiD22irAkathYto-77" value="Save" style="edgeLabel;html=1;align=center;verticalAlign=middle;resizable=0;points=[];" parent="lg_RptiD22irAkathYto-51" vertex="1" connectable="0">
          <mxGeometry x="-0.2447" relative="1" as="geometry">
            <mxPoint x="-8" as="offset" />
          </mxGeometry>
        </mxCell>
        <mxCell id="lg_RptiD22irAkathYto-63" style="edgeStyle=orthogonalEdgeStyle;rounded=0;orthogonalLoop=1;jettySize=auto;html=1;exitX=1;exitY=1;exitDx=0;exitDy=0;entryX=1;entryY=0;entryDx=0;entryDy=0;" parent="1" source="xA9a0mGivStNZ6-JXwGN-20" target="lg_RptiD22irAkathYto-55" edge="1">
          <mxGeometry relative="1" as="geometry" />
        </mxCell>
        <mxCell id="lg_RptiD22irAkathYto-65" value="Load" style="edgeLabel;html=1;align=center;verticalAlign=middle;resizable=0;points=[];" parent="lg_RptiD22irAkathYto-63" vertex="1" connectable="0">
          <mxGeometry x="-0.1419" y="1" relative="1" as="geometry">
            <mxPoint as="offset" />
          </mxGeometry>
        </mxCell>
        <mxCell id="4ra3rBG6zGIScaALu05h-39" style="edgeStyle=orthogonalEdgeStyle;rounded=0;orthogonalLoop=1;jettySize=auto;html=1;exitX=1;exitY=1;exitDx=0;exitDy=0;entryX=0;entryY=0.75;entryDx=0;entryDy=0;" edge="1" parent="1" source="xA9a0mGivStNZ6-JXwGN-20" target="4ra3rBG6zGIScaALu05h-37">
          <mxGeometry relative="1" as="geometry" />
        </mxCell>
        <mxCell id="4ra3rBG6zGIScaALu05h-41" value="Load" style="edgeLabel;html=1;align=center;verticalAlign=middle;resizable=0;points=[];" vertex="1" connectable="0" parent="4ra3rBG6zGIScaALu05h-39">
          <mxGeometry x="0.0973" y="-1" relative="1" as="geometry">
            <mxPoint as="offset" />
          </mxGeometry>
        </mxCell>
        <mxCell id="xA9a0mGivStNZ6-JXwGN-20" value="Serializable Dictionary" style="ellipse;whiteSpace=wrap;html=1;aspect=fixed;" parent="1" vertex="1">
          <mxGeometry x="650" y="1390" width="80" height="80" as="geometry" />
        </mxCell>
        <mxCell id="lg_RptiD22irAkathYto-28" style="edgeStyle=orthogonalEdgeStyle;rounded=0;orthogonalLoop=1;jettySize=auto;html=1;exitX=1;exitY=0;exitDx=0;exitDy=0;entryX=1;entryY=1;entryDx=0;entryDy=0;" parent="1" source="xA9a0mGivStNZ6-JXwGN-21" target="xA9a0mGivStNZ6-JXwGN-3" edge="1">
          <mxGeometry relative="1" as="geometry" />
        </mxCell>
        <mxCell id="lg_RptiD22irAkathYto-35" value="Load Data" style="edgeLabel;html=1;align=center;verticalAlign=middle;resizable=0;points=[];" parent="lg_RptiD22irAkathYto-28" vertex="1" connectable="0">
          <mxGeometry x="-0.0681" y="-2" relative="1" as="geometry">
            <mxPoint as="offset" />
          </mxGeometry>
        </mxCell>
        <mxCell id="lg_RptiD22irAkathYto-31" style="edgeStyle=orthogonalEdgeStyle;rounded=0;orthogonalLoop=1;jettySize=auto;html=1;exitX=0;exitY=1;exitDx=0;exitDy=0;" parent="1" source="xA9a0mGivStNZ6-JXwGN-21" edge="1">
          <mxGeometry relative="1" as="geometry">
            <mxPoint x="382" y="1570" as="targetPoint" />
          </mxGeometry>
        </mxCell>
        <mxCell id="lg_RptiD22irAkathYto-32" value="Save" style="edgeLabel;html=1;align=center;verticalAlign=middle;resizable=0;points=[];" parent="lg_RptiD22irAkathYto-31" vertex="1" connectable="0">
          <mxGeometry x="-0.0974" relative="1" as="geometry">
            <mxPoint as="offset" />
          </mxGeometry>
        </mxCell>
        <mxCell id="xA9a0mGivStNZ6-JXwGN-21" value="File Data Handler" style="ellipse;whiteSpace=wrap;html=1;aspect=fixed;" parent="1" vertex="1">
          <mxGeometry x="370" y="1440" width="80" height="80" as="geometry" />
        </mxCell>
        <mxCell id="lg_RptiD22irAkathYto-45" style="edgeStyle=orthogonalEdgeStyle;rounded=0;orthogonalLoop=1;jettySize=auto;html=1;exitX=0;exitY=1;exitDx=0;exitDy=0;entryX=0;entryY=0;entryDx=0;entryDy=0;" parent="1" target="xA9a0mGivStNZ6-JXwGN-16" edge="1">
          <mxGeometry relative="1" as="geometry">
            <mxPoint x="381.71572875253787" y="1088.2842712474621" as="sourcePoint" />
          </mxGeometry>
        </mxCell>
        <mxCell id="lg_RptiD22irAkathYto-85" value="Save" style="edgeLabel;html=1;align=center;verticalAlign=middle;resizable=0;points=[];" parent="lg_RptiD22irAkathYto-45" vertex="1" connectable="0">
          <mxGeometry x="-0.1798" relative="1" as="geometry">
            <mxPoint as="offset" />
          </mxGeometry>
        </mxCell>
        <mxCell id="lg_RptiD22irAkathYto-52" style="edgeStyle=orthogonalEdgeStyle;rounded=0;orthogonalLoop=1;jettySize=auto;html=1;entryX=1;entryY=0;entryDx=0;entryDy=0;exitX=0.75;exitY=1;exitDx=0;exitDy=0;" parent="1" source="4ra3rBG6zGIScaALu05h-32" target="xA9a0mGivStNZ6-JXwGN-17" edge="1">
          <mxGeometry relative="1" as="geometry">
            <Array as="points">
              <mxPoint x="790" y="1070" />
              <mxPoint x="730" y="1070" />
              <mxPoint x="730" y="1122" />
            </Array>
            <mxPoint x="730" y="1058.729833462074" as="sourcePoint" />
          </mxGeometry>
        </mxCell>
        <mxCell id="lg_RptiD22irAkathYto-76" value="Save" style="edgeLabel;html=1;align=center;verticalAlign=middle;resizable=0;points=[];" parent="lg_RptiD22irAkathYto-52" vertex="1" connectable="0">
          <mxGeometry x="-0.1691" relative="1" as="geometry">
            <mxPoint as="offset" />
          </mxGeometry>
        </mxCell>
        <mxCell id="lg_RptiD22irAkathYto-42" style="edgeStyle=orthogonalEdgeStyle;rounded=0;orthogonalLoop=1;jettySize=auto;html=1;exitX=0;exitY=1;exitDx=0;exitDy=0;" parent="1" source="xA9a0mGivStNZ6-JXwGN-26" edge="1">
          <mxGeometry relative="1" as="geometry">
            <mxPoint x="450" y="1340" as="targetPoint" />
            <Array as="points">
              <mxPoint x="662" y="1340" />
              <mxPoint x="450" y="1340" />
            </Array>
          </mxGeometry>
        </mxCell>
        <mxCell id="lg_RptiD22irAkathYto-72" value="Save" style="edgeLabel;html=1;align=center;verticalAlign=middle;resizable=0;points=[];" parent="lg_RptiD22irAkathYto-42" vertex="1" connectable="0">
          <mxGeometry x="-0.2767" relative="1" as="geometry">
            <mxPoint as="offset" />
          </mxGeometry>
        </mxCell>
        <mxCell id="lg_RptiD22irAkathYto-54" style="edgeStyle=orthogonalEdgeStyle;rounded=0;orthogonalLoop=1;jettySize=auto;html=1;exitX=1;exitY=0;exitDx=0;exitDy=0;entryX=1;entryY=1;entryDx=0;entryDy=0;" parent="1" source="xA9a0mGivStNZ6-JXwGN-26" target="xA9a0mGivStNZ6-JXwGN-17" edge="1">
          <mxGeometry relative="1" as="geometry" />
        </mxCell>
        <mxCell id="lg_RptiD22irAkathYto-75" value="Load" style="edgeLabel;html=1;align=center;verticalAlign=middle;resizable=0;points=[];" parent="lg_RptiD22irAkathYto-54" vertex="1" connectable="0">
          <mxGeometry x="0.0599" relative="1" as="geometry">
            <mxPoint as="offset" />
          </mxGeometry>
        </mxCell>
        <mxCell id="4ra3rBG6zGIScaALu05h-43" style="edgeStyle=orthogonalEdgeStyle;rounded=0;orthogonalLoop=1;jettySize=auto;html=1;exitX=0.763;exitY=0.938;exitDx=0;exitDy=0;entryX=0;entryY=0.75;entryDx=0;entryDy=0;exitPerimeter=0;" edge="1" parent="1" source="xA9a0mGivStNZ6-JXwGN-26" target="4ra3rBG6zGIScaALu05h-36">
          <mxGeometry relative="1" as="geometry" />
        </mxCell>
        <mxCell id="4ra3rBG6zGIScaALu05h-44" value="Load" style="edgeLabel;html=1;align=center;verticalAlign=middle;resizable=0;points=[];" vertex="1" connectable="0" parent="4ra3rBG6zGIScaALu05h-43">
          <mxGeometry x="0.1425" y="-1" relative="1" as="geometry">
            <mxPoint as="offset" />
          </mxGeometry>
        </mxCell>
        <mxCell id="xA9a0mGivStNZ6-JXwGN-26" value="Serializable Dictionary" style="ellipse;whiteSpace=wrap;html=1;aspect=fixed;" parent="1" vertex="1">
          <mxGeometry x="650" y="1250" width="80" height="80" as="geometry" />
        </mxCell>
        <mxCell id="lg_RptiD22irAkathYto-59" style="edgeStyle=orthogonalEdgeStyle;rounded=0;orthogonalLoop=1;jettySize=auto;html=1;exitX=1;exitY=0;exitDx=0;exitDy=0;entryX=1;entryY=1;entryDx=0;entryDy=0;" parent="1" target="lg_RptiD22irAkathYto-55" edge="1">
          <mxGeometry relative="1" as="geometry">
            <Array as="points">
              <mxPoint x="768" y="1578" />
            </Array>
            <mxPoint x="768.2842712474621" y="1651.7157287525379" as="sourcePoint" />
          </mxGeometry>
        </mxCell>
        <mxCell id="lg_RptiD22irAkathYto-68" value="Save" style="edgeLabel;html=1;align=center;verticalAlign=middle;resizable=0;points=[];" parent="lg_RptiD22irAkathYto-59" vertex="1" connectable="0">
          <mxGeometry x="-0.3322" y="-2" relative="1" as="geometry">
            <mxPoint as="offset" />
          </mxGeometry>
        </mxCell>
        <mxCell id="4ra3rBG6zGIScaALu05h-27" style="edgeStyle=orthogonalEdgeStyle;rounded=0;orthogonalLoop=1;jettySize=auto;html=1;" edge="1" parent="1" source="lg_RptiD22irAkathYto-2" target="4ra3rBG6zGIScaALu05h-26">
          <mxGeometry relative="1" as="geometry" />
        </mxCell>
        <mxCell id="lg_RptiD22irAkathYto-2" value="Scene/Level" style="ellipse;whiteSpace=wrap;html=1;aspect=fixed;" parent="1" vertex="1">
          <mxGeometry x="530" y="190" width="80" height="80" as="geometry" />
        </mxCell>
        <mxCell id="lg_RptiD22irAkathYto-8" value="Save Data" style="text;html=1;align=center;verticalAlign=middle;whiteSpace=wrap;rounded=0;" parent="1" vertex="1">
          <mxGeometry x="450" y="250" width="60" height="30" as="geometry" />
        </mxCell>
        <mxCell id="lg_RptiD22irAkathYto-13" style="edgeStyle=orthogonalEdgeStyle;rounded=0;orthogonalLoop=1;jettySize=auto;html=1;entryX=1.013;entryY=0.663;entryDx=0;entryDy=0;entryPerimeter=0;" parent="1" source="lg_RptiD22irAkathYto-2" target="cm0QUA97sO_7CGqtcgEQ-5" edge="1">
          <mxGeometry relative="1" as="geometry">
            <Array as="points">
              <mxPoint x="510" y="243" />
              <mxPoint x="510" y="243" />
            </Array>
          </mxGeometry>
        </mxCell>
        <mxCell id="lg_RptiD22irAkathYto-43" style="edgeStyle=orthogonalEdgeStyle;rounded=0;orthogonalLoop=1;jettySize=auto;html=1;exitX=0;exitY=0;exitDx=0;exitDy=0;entryX=1.025;entryY=0.619;entryDx=0;entryDy=0;entryPerimeter=0;" parent="1" source="xA9a0mGivStNZ6-JXwGN-20" target="xA9a0mGivStNZ6-JXwGN-3" edge="1">
          <mxGeometry relative="1" as="geometry">
            <Array as="points">
              <mxPoint x="662" y="1360" />
            </Array>
          </mxGeometry>
        </mxCell>
        <mxCell id="lg_RptiD22irAkathYto-73" value="Save" style="edgeLabel;html=1;align=center;verticalAlign=middle;resizable=0;points=[];" parent="lg_RptiD22irAkathYto-43" vertex="1" connectable="0">
          <mxGeometry x="-0.1671" y="2" relative="1" as="geometry">
            <mxPoint as="offset" />
          </mxGeometry>
        </mxCell>
        <mxCell id="lg_RptiD22irAkathYto-46" value="Save" style="edgeStyle=orthogonalEdgeStyle;rounded=0;orthogonalLoop=1;jettySize=auto;html=1;exitX=0;exitY=1;exitDx=0;exitDy=0;entryX=0.038;entryY=0.719;entryDx=0;entryDy=0;entryPerimeter=0;" parent="1" target="xA9a0mGivStNZ6-JXwGN-16" edge="1">
          <mxGeometry relative="1" as="geometry">
            <Array as="points">
              <mxPoint x="252" y="1218" />
            </Array>
            <mxPoint x="251.71572875253787" y="1158.2842712474621" as="sourcePoint" />
          </mxGeometry>
        </mxCell>
        <mxCell id="lg_RptiD22irAkathYto-48" style="edgeStyle=orthogonalEdgeStyle;rounded=0;orthogonalLoop=1;jettySize=auto;html=1;exitX=1;exitY=1;exitDx=0;exitDy=0;entryX=0.95;entryY=0.731;entryDx=0;entryDy=0;entryPerimeter=0;" parent="1" target="xA9a0mGivStNZ6-JXwGN-16" edge="1">
          <mxGeometry relative="1" as="geometry">
            <Array as="points">
              <mxPoint x="558" y="1218" />
            </Array>
            <mxPoint x="558.2842712474621" y="1158.2842712474621" as="sourcePoint" />
          </mxGeometry>
        </mxCell>
        <mxCell id="lg_RptiD22irAkathYto-81" value="Save" style="edgeLabel;html=1;align=center;verticalAlign=middle;resizable=0;points=[];" parent="lg_RptiD22irAkathYto-48" vertex="1" connectable="0">
          <mxGeometry x="0.3044" y="4" relative="1" as="geometry">
            <mxPoint as="offset" />
          </mxGeometry>
        </mxCell>
        <mxCell id="lg_RptiD22irAkathYto-56" style="edgeStyle=orthogonalEdgeStyle;rounded=0;orthogonalLoop=1;jettySize=auto;html=1;entryX=0.62;entryY=0;entryDx=0;entryDy=0;entryPerimeter=0;" parent="1" source="lg_RptiD22irAkathYto-55" target="4ra3rBG6zGIScaALu05h-5" edge="1">
          <mxGeometry relative="1" as="geometry">
            <mxPoint x="650" y="1640" as="targetPoint" />
            <Array as="points">
              <mxPoint x="680" y="1620" />
              <mxPoint x="652" y="1620" />
            </Array>
          </mxGeometry>
        </mxCell>
        <mxCell id="4ra3rBG6zGIScaALu05h-7" value="Load" style="edgeLabel;html=1;align=center;verticalAlign=middle;resizable=0;points=[];" vertex="1" connectable="0" parent="lg_RptiD22irAkathYto-56">
          <mxGeometry x="-0.5459" y="1" relative="1" as="geometry">
            <mxPoint x="-1" as="offset" />
          </mxGeometry>
        </mxCell>
        <mxCell id="lg_RptiD22irAkathYto-57" style="edgeStyle=orthogonalEdgeStyle;rounded=0;orthogonalLoop=1;jettySize=auto;html=1;entryX=0.41;entryY=-0.05;entryDx=0;entryDy=0;entryPerimeter=0;" parent="1" source="lg_RptiD22irAkathYto-55" target="4ra3rBG6zGIScaALu05h-6" edge="1">
          <mxGeometry relative="1" as="geometry">
            <mxPoint x="740" y="1640" as="targetPoint" />
            <Array as="points">
              <mxPoint x="710" y="1620" />
              <mxPoint x="741" y="1620" />
            </Array>
          </mxGeometry>
        </mxCell>
        <mxCell id="lg_RptiD22irAkathYto-69" value="Load" style="edgeLabel;html=1;align=center;verticalAlign=middle;resizable=0;points=[];" parent="lg_RptiD22irAkathYto-57" vertex="1" connectable="0">
          <mxGeometry x="-0.71" y="1" relative="1" as="geometry">
            <mxPoint y="11" as="offset" />
          </mxGeometry>
        </mxCell>
        <mxCell id="lg_RptiD22irAkathYto-60" style="edgeStyle=orthogonalEdgeStyle;rounded=0;orthogonalLoop=1;jettySize=auto;html=1;entryX=0.75;entryY=0;entryDx=0;entryDy=0;" parent="1" source="lg_RptiD22irAkathYto-55" target="4ra3rBG6zGIScaALu05h-4" edge="1">
          <mxGeometry relative="1" as="geometry">
            <mxPoint x="530" y="1660" as="targetPoint" />
          </mxGeometry>
        </mxCell>
        <mxCell id="lg_RptiD22irAkathYto-84" value="Button Output" style="edgeLabel;html=1;align=center;verticalAlign=middle;resizable=0;points=[];" parent="lg_RptiD22irAkathYto-60" vertex="1" connectable="0">
          <mxGeometry x="-0.4522" y="1" relative="1" as="geometry">
            <mxPoint as="offset" />
          </mxGeometry>
        </mxCell>
        <mxCell id="lg_RptiD22irAkathYto-64" style="edgeStyle=orthogonalEdgeStyle;rounded=0;orthogonalLoop=1;jettySize=auto;html=1;exitX=0;exitY=0;exitDx=0;exitDy=0;entryX=0;entryY=1;entryDx=0;entryDy=0;" parent="1" source="lg_RptiD22irAkathYto-55" target="xA9a0mGivStNZ6-JXwGN-20" edge="1">
          <mxGeometry relative="1" as="geometry" />
        </mxCell>
        <mxCell id="lg_RptiD22irAkathYto-66" value="Save" style="edgeLabel;html=1;align=center;verticalAlign=middle;resizable=0;points=[];" parent="lg_RptiD22irAkathYto-64" vertex="1" connectable="0">
          <mxGeometry x="0.0473" y="-3" relative="1" as="geometry">
            <mxPoint as="offset" />
          </mxGeometry>
        </mxCell>
        <mxCell id="lg_RptiD22irAkathYto-55" value="Button Script" style="ellipse;whiteSpace=wrap;html=1;aspect=fixed;" parent="1" vertex="1">
          <mxGeometry x="650" y="1510" width="80" height="80" as="geometry" />
        </mxCell>
        <mxCell id="4ra3rBG6zGIScaALu05h-1" value="Player Health" style="rounded=1;whiteSpace=wrap;html=1;" vertex="1" parent="1">
          <mxGeometry x="230" y="1120" width="120" height="40" as="geometry" />
        </mxCell>
        <mxCell id="4ra3rBG6zGIScaALu05h-2" value="Player Position" style="rounded=1;whiteSpace=wrap;html=1;" vertex="1" parent="1">
          <mxGeometry x="350" y="1050" width="120" height="40" as="geometry" />
        </mxCell>
        <mxCell id="4ra3rBG6zGIScaALu05h-3" value="Respawn Point" style="rounded=1;whiteSpace=wrap;html=1;" vertex="1" parent="1">
          <mxGeometry x="480" y="1120" width="120" height="40" as="geometry" />
        </mxCell>
        <mxCell id="4ra3rBG6zGIScaALu05h-4" value="Connected GameObjects" style="rounded=1;whiteSpace=wrap;html=1;" vertex="1" parent="1">
          <mxGeometry x="430" y="1660" width="120" height="50" as="geometry" />
        </mxCell>
        <mxCell id="4ra3rBG6zGIScaALu05h-5" value="Button ID" style="rounded=1;whiteSpace=wrap;html=1;" vertex="1" parent="1">
          <mxGeometry x="590" y="1650" width="100" height="40" as="geometry" />
        </mxCell>
        <mxCell id="4ra3rBG6zGIScaALu05h-6" value="On/Off Status" style="rounded=1;whiteSpace=wrap;html=1;" vertex="1" parent="1">
          <mxGeometry x="700" y="1650" width="100" height="40" as="geometry" />
        </mxCell>
        <mxCell id="4ra3rBG6zGIScaALu05h-8" value="Connected Game Objects" style="rounded=1;whiteSpace=wrap;html=1;" vertex="1" parent="1">
          <mxGeometry x="540" y="660" width="120" height="60" as="geometry" />
        </mxCell>
        <mxCell id="4ra3rBG6zGIScaALu05h-10" value="Character Data" style="rounded=1;whiteSpace=wrap;html=1;" vertex="1" parent="1">
          <mxGeometry x="550" y="420" width="120" height="60" as="geometry" />
        </mxCell>
        <mxCell id="4ra3rBG6zGIScaALu05h-15" value="Save" style="edgeStyle=orthogonalEdgeStyle;rounded=0;orthogonalLoop=1;jettySize=auto;html=1;entryX=0.925;entryY=0.25;entryDx=0;entryDy=0;entryPerimeter=0;" edge="1" parent="1" source="4ra3rBG6zGIScaALu05h-10" target="cm0QUA97sO_7CGqtcgEQ-17">
          <mxGeometry relative="1" as="geometry">
            <mxPoint x="480" y="431" as="targetPoint" />
            <Array as="points">
              <mxPoint x="530" y="431" />
            </Array>
          </mxGeometry>
        </mxCell>
        <mxCell id="4ra3rBG6zGIScaALu05h-16" value="Enemy Data" style="rounded=1;whiteSpace=wrap;html=1;" vertex="1" parent="1">
          <mxGeometry x="100" y="700" width="120" height="60" as="geometry" />
        </mxCell>
        <mxCell id="4ra3rBG6zGIScaALu05h-18" style="edgeStyle=orthogonalEdgeStyle;rounded=0;orthogonalLoop=1;jettySize=auto;html=1;exitX=1;exitY=0.25;exitDx=0;exitDy=0;entryX=0.013;entryY=0.313;entryDx=0;entryDy=0;entryPerimeter=0;" edge="1" parent="1" source="4ra3rBG6zGIScaALu05h-16" target="cm0QUA97sO_7CGqtcgEQ-13">
          <mxGeometry relative="1" as="geometry" />
        </mxCell>
        <mxCell id="4ra3rBG6zGIScaALu05h-19" value="Save" style="edgeLabel;html=1;align=center;verticalAlign=middle;resizable=0;points=[];" vertex="1" connectable="0" parent="4ra3rBG6zGIScaALu05h-18">
          <mxGeometry x="-0.309" relative="1" as="geometry">
            <mxPoint x="12" as="offset" />
          </mxGeometry>
        </mxCell>
        <mxCell id="4ra3rBG6zGIScaALu05h-26" value="Game Objects" style="rounded=1;whiteSpace=wrap;html=1;" vertex="1" parent="1">
          <mxGeometry x="700" y="200" width="120" height="60" as="geometry" />
        </mxCell>
        <mxCell id="4ra3rBG6zGIScaALu05h-28" value="Load Data" style="text;html=1;align=center;verticalAlign=middle;whiteSpace=wrap;rounded=0;" vertex="1" parent="1">
          <mxGeometry x="450" y="190" width="60" height="30" as="geometry" />
        </mxCell>
        <mxCell id="4ra3rBG6zGIScaALu05h-29" value="Initialize Data" style="text;html=1;align=center;verticalAlign=middle;whiteSpace=wrap;rounded=0;" vertex="1" parent="1">
          <mxGeometry x="620" y="200" width="60" height="30" as="geometry" />
        </mxCell>
        <mxCell id="4ra3rBG6zGIScaALu05h-32" value="Dead/Alive Status" style="rounded=1;whiteSpace=wrap;html=1;" vertex="1" parent="1">
          <mxGeometry x="690" y="1000" width="120" height="40" as="geometry" />
        </mxCell>
        <mxCell id="4ra3rBG6zGIScaALu05h-33" value="Enemy ID" style="rounded=1;whiteSpace=wrap;html=1;" vertex="1" parent="1">
          <mxGeometry x="560" y="1000" width="120" height="40" as="geometry" />
        </mxCell>
        <mxCell id="4ra3rBG6zGIScaALu05h-34" style="edgeStyle=orthogonalEdgeStyle;rounded=0;orthogonalLoop=1;jettySize=auto;html=1;" edge="1" parent="1" source="xA9a0mGivStNZ6-JXwGN-17">
          <mxGeometry relative="1" as="geometry">
            <mxPoint x="705" y="1040" as="targetPoint" />
            <Array as="points">
              <mxPoint x="705" y="1090" />
              <mxPoint x="705" y="1090" />
            </Array>
          </mxGeometry>
        </mxCell>
        <mxCell id="4ra3rBG6zGIScaALu05h-35" value="Load" style="edgeLabel;html=1;align=center;verticalAlign=middle;resizable=0;points=[];" vertex="1" connectable="0" parent="4ra3rBG6zGIScaALu05h-34">
          <mxGeometry x="0.0561" y="-1" relative="1" as="geometry">
            <mxPoint as="offset" />
          </mxGeometry>
        </mxCell>
        <mxCell id="4ra3rBG6zGIScaALu05h-36" value="Memory Management Data" style="rounded=1;whiteSpace=wrap;html=1;" vertex="1" parent="1">
          <mxGeometry x="790" y="1265" width="120" height="50" as="geometry" />
        </mxCell>
        <mxCell id="4ra3rBG6zGIScaALu05h-38" style="edgeStyle=orthogonalEdgeStyle;rounded=0;orthogonalLoop=1;jettySize=auto;html=1;entryX=1;entryY=0;entryDx=0;entryDy=0;" edge="1" parent="1" source="4ra3rBG6zGIScaALu05h-37" target="xA9a0mGivStNZ6-JXwGN-20">
          <mxGeometry relative="1" as="geometry" />
        </mxCell>
        <mxCell id="4ra3rBG6zGIScaALu05h-40" value="Save" style="edgeLabel;html=1;align=center;verticalAlign=middle;resizable=0;points=[];" vertex="1" connectable="0" parent="4ra3rBG6zGIScaALu05h-38">
          <mxGeometry x="-0.1001" relative="1" as="geometry">
            <mxPoint as="offset" />
          </mxGeometry>
        </mxCell>
        <mxCell id="4ra3rBG6zGIScaALu05h-37" value="Binary Level Data" style="rounded=1;whiteSpace=wrap;html=1;" vertex="1" parent="1">
          <mxGeometry x="790" y="1405" width="120" height="50" as="geometry" />
        </mxCell>
        <mxCell id="4ra3rBG6zGIScaALu05h-42" style="edgeStyle=orthogonalEdgeStyle;rounded=0;orthogonalLoop=1;jettySize=auto;html=1;entryX=0.925;entryY=0.238;entryDx=0;entryDy=0;entryPerimeter=0;" edge="1" parent="1" source="4ra3rBG6zGIScaALu05h-36" target="xA9a0mGivStNZ6-JXwGN-26">
          <mxGeometry relative="1" as="geometry" />
        </mxCell>
        <mxCell id="4ra3rBG6zGIScaALu05h-45" value="Save" style="edgeLabel;html=1;align=center;verticalAlign=middle;resizable=0;points=[];" vertex="1" connectable="0" parent="4ra3rBG6zGIScaALu05h-42">
          <mxGeometry x="-0.1264" relative="1" as="geometry">
            <mxPoint as="offset" />
          </mxGeometry>
        </mxCell>
      </root>
    </mxGraphModel>
  </diagram>
</mxfile>
